<mxfile host="app.diagrams.net" modified="2023-04-29T05:58:17.054Z" agent="Mozilla/5.0 (Windows NT 10.0; Win64; x64) AppleWebKit/537.36 (KHTML, like Gecko) Chrome/112.0.0.0 Safari/537.36" etag="PjGWPTu3sLGC_uPNY0lj" version="21.2.2" type="device">
  <diagram id="eeUPSQGnS4Wb2iKVomvQ" name="Page-1">
    <mxGraphModel dx="1877" dy="483" grid="1" gridSize="10" guides="1" tooltips="1" connect="1" arrows="1" fold="1" page="1" pageScale="1" pageWidth="827" pageHeight="1169" math="0" shadow="0">
      <root>
        <mxCell id="0" />
        <mxCell id="1" parent="0" />
        <mxCell id="kkySRi8QIne8LZKdG0_1-1" value="Question Bank" style="rounded=1;whiteSpace=wrap;html=1;fillColor=#f8cecc;strokeColor=#b85450;" parent="1" vertex="1">
          <mxGeometry x="459" y="502.5" width="120" height="60" as="geometry" />
        </mxCell>
        <mxCell id="kkySRi8QIne8LZKdG0_1-2" value="Course" style="rounded=1;whiteSpace=wrap;html=1;fillColor=#f8cecc;strokeColor=#b85450;" parent="1" vertex="1">
          <mxGeometry x="600" y="130" width="120" height="60" as="geometry" />
        </mxCell>
        <mxCell id="kkySRi8QIne8LZKdG0_1-3" value="Instructor" style="rounded=1;whiteSpace=wrap;html=1;fillColor=#f8cecc;strokeColor=#b85450;" parent="1" vertex="1">
          <mxGeometry x="100" y="130" width="120" height="60" as="geometry" />
        </mxCell>
        <mxCell id="kkySRi8QIne8LZKdG0_1-4" value="Student" style="rounded=1;whiteSpace=wrap;html=1;fillColor=#f8cecc;strokeColor=#b85450;" parent="1" vertex="1">
          <mxGeometry x="600" y="362.5" width="120" height="60" as="geometry" />
        </mxCell>
        <mxCell id="kkySRi8QIne8LZKdG0_1-5" value="Exam" style="rounded=1;whiteSpace=wrap;html=1;fillColor=#f8cecc;strokeColor=#b85450;" parent="1" vertex="1">
          <mxGeometry x="130" y="400" width="120" height="60" as="geometry" />
        </mxCell>
        <mxCell id="kkySRi8QIne8LZKdG0_1-6" value="Teach" style="rhombus;whiteSpace=wrap;html=1;fillColor=#f5f5f5;fontColor=#333333;strokeColor=#666666;" parent="1" vertex="1">
          <mxGeometry x="374" y="120" width="80" height="80" as="geometry" />
        </mxCell>
        <mxCell id="kkySRi8QIne8LZKdG0_1-7" value="Learn" style="rhombus;whiteSpace=wrap;html=1;fillColor=#f5f5f5;fontColor=#333333;strokeColor=#666666;" parent="1" vertex="1">
          <mxGeometry x="620" y="250" width="80" height="80" as="geometry" />
        </mxCell>
        <mxCell id="kkySRi8QIne8LZKdG0_1-8" value="Put" style="rhombus;whiteSpace=wrap;html=1;fillColor=#f5f5f5;fontColor=#333333;strokeColor=#666666;" parent="1" vertex="1">
          <mxGeometry x="120" y="250" width="80" height="80" as="geometry" />
        </mxCell>
        <mxCell id="kkySRi8QIne8LZKdG0_1-9" value="" style="endArrow=none;html=1;rounded=0;entryX=0;entryY=0.5;entryDx=0;entryDy=0;" parent="1" target="kkySRi8QIne8LZKdG0_1-6" edge="1">
          <mxGeometry width="50" height="50" relative="1" as="geometry">
            <mxPoint x="220" y="160" as="sourcePoint" />
            <mxPoint x="270" y="110" as="targetPoint" />
          </mxGeometry>
        </mxCell>
        <mxCell id="kkySRi8QIne8LZKdG0_1-10" value="" style="endArrow=none;html=1;rounded=0;entryX=0;entryY=0.5;entryDx=0;entryDy=0;" parent="1" target="kkySRi8QIne8LZKdG0_1-2" edge="1">
          <mxGeometry width="50" height="50" relative="1" as="geometry">
            <mxPoint x="454" y="159.5" as="sourcePoint" />
            <mxPoint x="570" y="160" as="targetPoint" />
          </mxGeometry>
        </mxCell>
        <mxCell id="kkySRi8QIne8LZKdG0_1-11" value="" style="endArrow=none;html=1;rounded=0;exitX=0.5;exitY=0;exitDx=0;exitDy=0;" parent="1" source="kkySRi8QIne8LZKdG0_1-8" edge="1">
          <mxGeometry width="50" height="50" relative="1" as="geometry">
            <mxPoint x="110" y="240" as="sourcePoint" />
            <mxPoint x="160" y="190" as="targetPoint" />
          </mxGeometry>
        </mxCell>
        <mxCell id="kkySRi8QIne8LZKdG0_1-12" value="" style="endArrow=none;html=1;rounded=0;exitX=0.75;exitY=0;exitDx=0;exitDy=0;entryX=0.5;entryY=1;entryDx=0;entryDy=0;" parent="1" source="kkySRi8QIne8LZKdG0_1-5" target="kkySRi8QIne8LZKdG0_1-8" edge="1">
          <mxGeometry width="50" height="50" relative="1" as="geometry">
            <mxPoint x="159.5" y="380" as="sourcePoint" />
            <mxPoint x="160" y="360" as="targetPoint" />
          </mxGeometry>
        </mxCell>
        <mxCell id="kkySRi8QIne8LZKdG0_1-13" value="Solve" style="rhombus;whiteSpace=wrap;html=1;fillColor=#f5f5f5;fontColor=#333333;strokeColor=#666666;" parent="1" vertex="1">
          <mxGeometry x="374" y="357.5" width="80" height="80" as="geometry" />
        </mxCell>
        <mxCell id="kkySRi8QIne8LZKdG0_1-14" value="" style="endArrow=none;html=1;rounded=0;entryX=0;entryY=0.5;entryDx=0;entryDy=0;exitX=1;exitY=0.5;exitDx=0;exitDy=0;" parent="1" source="kkySRi8QIne8LZKdG0_1-13" target="kkySRi8QIne8LZKdG0_1-4" edge="1">
          <mxGeometry width="50" height="50" relative="1" as="geometry">
            <mxPoint x="460" y="410" as="sourcePoint" />
            <mxPoint x="510" y="360" as="targetPoint" />
          </mxGeometry>
        </mxCell>
        <mxCell id="kkySRi8QIne8LZKdG0_1-15" value="" style="endArrow=none;html=1;rounded=0;exitX=1;exitY=0.5;exitDx=0;exitDy=0;entryX=0;entryY=0.5;entryDx=0;entryDy=0;" parent="1" source="kkySRi8QIne8LZKdG0_1-5" target="kkySRi8QIne8LZKdG0_1-13" edge="1">
          <mxGeometry width="50" height="50" relative="1" as="geometry">
            <mxPoint x="228" y="409.5" as="sourcePoint" />
            <mxPoint x="374" y="410" as="targetPoint" />
          </mxGeometry>
        </mxCell>
        <mxCell id="kkySRi8QIne8LZKdG0_1-16" value="" style="endArrow=none;html=1;rounded=0;" parent="1" source="kkySRi8QIne8LZKdG0_1-7" edge="1">
          <mxGeometry width="50" height="50" relative="1" as="geometry">
            <mxPoint x="610" y="240" as="sourcePoint" />
            <mxPoint x="660" y="190" as="targetPoint" />
          </mxGeometry>
        </mxCell>
        <mxCell id="kkySRi8QIne8LZKdG0_1-17" value="" style="endArrow=none;html=1;rounded=0;exitX=0.5;exitY=0;exitDx=0;exitDy=0;" parent="1" source="kkySRi8QIne8LZKdG0_1-4" edge="1">
          <mxGeometry width="50" height="50" relative="1" as="geometry">
            <mxPoint x="660" y="360" as="sourcePoint" />
            <mxPoint x="659.5" y="330" as="targetPoint" />
          </mxGeometry>
        </mxCell>
        <mxCell id="kkySRi8QIne8LZKdG0_1-18" value="Contain" style="rhombus;whiteSpace=wrap;html=1;fillColor=#f5f5f5;fontColor=#333333;strokeColor=#666666;" parent="1" vertex="1">
          <mxGeometry x="310" y="485" width="80" height="80" as="geometry" />
        </mxCell>
        <mxCell id="kkySRi8QIne8LZKdG0_1-19" value="" style="endArrow=none;html=1;rounded=0;exitX=1;exitY=1;exitDx=0;exitDy=0;entryX=0;entryY=0.5;entryDx=0;entryDy=0;" parent="1" source="kkySRi8QIne8LZKdG0_1-18" target="kkySRi8QIne8LZKdG0_1-1" edge="1">
          <mxGeometry width="50" height="50" relative="1" as="geometry">
            <mxPoint x="310" y="620" as="sourcePoint" />
            <mxPoint x="360" y="570" as="targetPoint" />
          </mxGeometry>
        </mxCell>
        <mxCell id="kkySRi8QIne8LZKdG0_1-20" value="" style="endArrow=none;html=1;rounded=0;exitX=0;exitY=0;exitDx=0;exitDy=0;entryX=0.917;entryY=1;entryDx=0;entryDy=0;entryPerimeter=0;" parent="1" source="kkySRi8QIne8LZKdG0_1-18" target="kkySRi8QIne8LZKdG0_1-5" edge="1">
          <mxGeometry width="50" height="50" relative="1" as="geometry">
            <mxPoint x="290" y="570" as="sourcePoint" />
            <mxPoint x="240" y="450" as="targetPoint" />
          </mxGeometry>
        </mxCell>
        <mxCell id="kkySRi8QIne8LZKdG0_1-23" value="&lt;u&gt;ID&lt;/u&gt;" style="ellipse;whiteSpace=wrap;html=1;fillColor=#ffe6cc;strokeColor=#d79b00;" parent="1" vertex="1">
          <mxGeometry x="605" y="490" width="90" height="55" as="geometry" />
        </mxCell>
        <mxCell id="kkySRi8QIne8LZKdG0_1-25" value="Degree" style="ellipse;whiteSpace=wrap;html=1;fillColor=#ffe6cc;strokeColor=#d79b00;" parent="1" vertex="1">
          <mxGeometry x="356" y="615" width="90" height="55" as="geometry" />
        </mxCell>
        <mxCell id="kkySRi8QIne8LZKdG0_1-26" value="Type" style="ellipse;whiteSpace=wrap;html=1;fillColor=#ffe6cc;strokeColor=#d79b00;" parent="1" vertex="1">
          <mxGeometry x="600" y="565" width="90" height="55" as="geometry" />
        </mxCell>
        <mxCell id="kkySRi8QIne8LZKdG0_1-27" value="Content" style="ellipse;whiteSpace=wrap;html=1;fillColor=#ffe6cc;strokeColor=#d79b00;" parent="1" vertex="1">
          <mxGeometry x="585" y="630" width="90" height="55" as="geometry" />
        </mxCell>
        <mxCell id="kkySRi8QIne8LZKdG0_1-29" value="&lt;u&gt;ID&lt;/u&gt;" style="ellipse;whiteSpace=wrap;html=1;fillColor=#ffe6cc;strokeColor=#d79b00;" parent="1" vertex="1">
          <mxGeometry x="10" y="55" width="90" height="55" as="geometry" />
        </mxCell>
        <mxCell id="kkySRi8QIne8LZKdG0_1-31" value="Name" style="ellipse;whiteSpace=wrap;html=1;fillColor=#ffe6cc;strokeColor=#d79b00;" parent="1" vertex="1">
          <mxGeometry x="115" y="50" width="90" height="55" as="geometry" />
        </mxCell>
        <mxCell id="kkySRi8QIne8LZKdG0_1-32" value="&lt;u&gt;ID&lt;/u&gt;" style="ellipse;whiteSpace=wrap;html=1;fillColor=#ffe6cc;strokeColor=#d79b00;" parent="1" vertex="1">
          <mxGeometry x="520" y="40" width="90" height="55" as="geometry" />
        </mxCell>
        <mxCell id="kkySRi8QIne8LZKdG0_1-33" value="Name" style="ellipse;whiteSpace=wrap;html=1;fillColor=#ffe6cc;strokeColor=#d79b00;" parent="1" vertex="1">
          <mxGeometry x="620" y="40" width="90" height="55" as="geometry" />
        </mxCell>
        <mxCell id="kkySRi8QIne8LZKdG0_1-36" value="Description" style="ellipse;whiteSpace=wrap;html=1;fillColor=#ffe6cc;strokeColor=#d79b00;" parent="1" vertex="1">
          <mxGeometry x="720" y="40" width="90" height="55" as="geometry" />
        </mxCell>
        <mxCell id="kkySRi8QIne8LZKdG0_1-37" value="Max Degree" style="ellipse;whiteSpace=wrap;html=1;fillColor=#ffe6cc;strokeColor=#d79b00;" parent="1" vertex="1">
          <mxGeometry x="730" y="110" width="90" height="55" as="geometry" />
        </mxCell>
        <mxCell id="kkySRi8QIne8LZKdG0_1-38" value="Min Degree" style="ellipse;whiteSpace=wrap;html=1;fillColor=#ffe6cc;strokeColor=#d79b00;" parent="1" vertex="1">
          <mxGeometry x="737" y="172.5" width="90" height="55" as="geometry" />
        </mxCell>
        <mxCell id="kkySRi8QIne8LZKdG0_1-39" value="&lt;u&gt;ID&lt;/u&gt;" style="ellipse;whiteSpace=wrap;html=1;fillColor=#ffe6cc;strokeColor=#d79b00;" parent="1" vertex="1">
          <mxGeometry x="730" y="370" width="90" height="55" as="geometry" />
        </mxCell>
        <mxCell id="kkySRi8QIne8LZKdG0_1-40" value="Name" style="ellipse;whiteSpace=wrap;html=1;fillColor=#ffe6cc;strokeColor=#d79b00;" parent="1" vertex="1">
          <mxGeometry x="730" y="435" width="90" height="55" as="geometry" />
        </mxCell>
        <mxCell id="kkySRi8QIne8LZKdG0_1-41" value="&lt;u&gt;ID&lt;/u&gt;" style="ellipse;whiteSpace=wrap;html=1;fillColor=#ffe6cc;strokeColor=#d79b00;" parent="1" vertex="1">
          <mxGeometry y="315" width="90" height="55" as="geometry" />
        </mxCell>
        <mxCell id="kkySRi8QIne8LZKdG0_1-42" value="Type" style="ellipse;whiteSpace=wrap;html=1;fillColor=#ffe6cc;strokeColor=#d79b00;" parent="1" vertex="1">
          <mxGeometry y="435" width="90" height="55" as="geometry" />
        </mxCell>
        <mxCell id="kkySRi8QIne8LZKdG0_1-43" value="Year" style="ellipse;whiteSpace=wrap;html=1;fillColor=#ffe6cc;strokeColor=#d79b00;" parent="1" vertex="1">
          <mxGeometry y="505" width="90" height="55" as="geometry" />
        </mxCell>
        <mxCell id="kkySRi8QIne8LZKdG0_1-44" value="Strat Time" style="ellipse;whiteSpace=wrap;html=1;fillColor=#ffe6cc;strokeColor=#d79b00;" parent="1" vertex="1">
          <mxGeometry x="15" y="565" width="90" height="55" as="geometry" />
        </mxCell>
        <mxCell id="kkySRi8QIne8LZKdG0_1-45" value="End Time" style="ellipse;whiteSpace=wrap;html=1;fillColor=#ffe6cc;strokeColor=#d79b00;" parent="1" vertex="1">
          <mxGeometry x="115" y="565" width="90" height="55" as="geometry" />
        </mxCell>
        <mxCell id="kkySRi8QIne8LZKdG0_1-46" value="Degree" style="ellipse;whiteSpace=wrap;html=1;fillColor=#ffe6cc;strokeColor=#d79b00;" parent="1" vertex="1">
          <mxGeometry x="215" y="560" width="90" height="55" as="geometry" />
        </mxCell>
        <mxCell id="kkySRi8QIne8LZKdG0_1-47" value="M" style="text;html=1;align=center;verticalAlign=middle;resizable=0;points=[];autosize=1;strokeColor=none;fillColor=none;" parent="1" vertex="1">
          <mxGeometry x="220" y="135" width="30" height="30" as="geometry" />
        </mxCell>
        <mxCell id="kkySRi8QIne8LZKdG0_1-48" value="M" style="text;html=1;align=center;verticalAlign=middle;resizable=0;points=[];autosize=1;strokeColor=none;fillColor=none;" parent="1" vertex="1">
          <mxGeometry x="570" y="135" width="30" height="30" as="geometry" />
        </mxCell>
        <mxCell id="kkySRi8QIne8LZKdG0_1-49" value="&lt;u&gt;Course_ID&lt;/u&gt;" style="ellipse;whiteSpace=wrap;html=1;fillColor=#d5e8d4;strokeColor=#82b366;" parent="1" vertex="1">
          <mxGeometry x="322" y="200" width="68" height="50" as="geometry" />
        </mxCell>
        <mxCell id="kkySRi8QIne8LZKdG0_1-50" value="&lt;u&gt;Instructor_ID&lt;/u&gt;" style="ellipse;whiteSpace=wrap;html=1;fillColor=#d5e8d4;strokeColor=#82b366;" parent="1" vertex="1">
          <mxGeometry x="426" y="200" width="74" height="50" as="geometry" />
        </mxCell>
        <mxCell id="kkySRi8QIne8LZKdG0_1-51" value="1" style="text;html=1;align=center;verticalAlign=middle;resizable=0;points=[];autosize=1;strokeColor=none;fillColor=none;" parent="1" vertex="1">
          <mxGeometry x="155" y="185" width="30" height="30" as="geometry" />
        </mxCell>
        <mxCell id="kkySRi8QIne8LZKdG0_1-52" value="M" style="text;html=1;align=center;verticalAlign=middle;resizable=0;points=[];autosize=1;strokeColor=none;fillColor=none;" parent="1" vertex="1">
          <mxGeometry x="220" y="370" width="30" height="30" as="geometry" />
        </mxCell>
        <mxCell id="kkySRi8QIne8LZKdG0_1-54" value="&lt;u&gt;Instructor_ID&lt;/u&gt;" style="ellipse;whiteSpace=wrap;html=1;fillColor=#d5e8d4;strokeColor=#82b366;" parent="1" vertex="1">
          <mxGeometry x="100" y="340" width="80" height="50" as="geometry" />
        </mxCell>
        <mxCell id="kkySRi8QIne8LZKdG0_1-55" value="M" style="text;html=1;align=center;verticalAlign=middle;resizable=0;points=[];autosize=1;strokeColor=none;fillColor=none;" parent="1" vertex="1">
          <mxGeometry x="245" y="445" width="30" height="30" as="geometry" />
        </mxCell>
        <mxCell id="kkySRi8QIne8LZKdG0_1-56" value="M" style="text;html=1;align=center;verticalAlign=middle;resizable=0;points=[];autosize=1;strokeColor=none;fillColor=none;" parent="1" vertex="1">
          <mxGeometry x="429" y="510" width="30" height="30" as="geometry" />
        </mxCell>
        <mxCell id="kkySRi8QIne8LZKdG0_1-57" value="&lt;u&gt;Question_ID&lt;/u&gt;" style="ellipse;whiteSpace=wrap;html=1;fillColor=#d5e8d4;strokeColor=#82b366;" parent="1" vertex="1">
          <mxGeometry x="369" y="452.5" width="76" height="50" as="geometry" />
        </mxCell>
        <mxCell id="kkySRi8QIne8LZKdG0_1-58" value="&lt;u&gt;Exam_ID&lt;/u&gt;" style="ellipse;whiteSpace=wrap;html=1;fillColor=#d5e8d4;strokeColor=#82b366;" parent="1" vertex="1">
          <mxGeometry x="290" y="430" width="66" height="45" as="geometry" />
        </mxCell>
        <mxCell id="kkySRi8QIne8LZKdG0_1-59" value="M" style="text;html=1;align=center;verticalAlign=middle;resizable=0;points=[];autosize=1;strokeColor=none;fillColor=none;" parent="1" vertex="1">
          <mxGeometry x="250" y="395" width="30" height="30" as="geometry" />
        </mxCell>
        <mxCell id="kkySRi8QIne8LZKdG0_1-60" value="M" style="text;html=1;align=center;verticalAlign=middle;resizable=0;points=[];autosize=1;strokeColor=none;fillColor=none;" parent="1" vertex="1">
          <mxGeometry x="570" y="362.5" width="30" height="30" as="geometry" />
        </mxCell>
        <mxCell id="kkySRi8QIne8LZKdG0_1-61" value="&lt;u&gt;Student_ID&lt;/u&gt;" style="ellipse;whiteSpace=wrap;html=1;fillColor=#d5e8d4;strokeColor=#82b366;" parent="1" vertex="1">
          <mxGeometry x="429" y="315" width="76" height="50" as="geometry" />
        </mxCell>
        <mxCell id="kkySRi8QIne8LZKdG0_1-62" value="&lt;u&gt;Exam_ID&lt;/u&gt;" style="ellipse;whiteSpace=wrap;html=1;fillColor=#d5e8d4;strokeColor=#82b366;" parent="1" vertex="1">
          <mxGeometry x="324" y="317.5" width="66" height="45" as="geometry" />
        </mxCell>
        <mxCell id="kkySRi8QIne8LZKdG0_1-63" value="M" style="text;html=1;align=center;verticalAlign=middle;resizable=0;points=[];autosize=1;strokeColor=none;fillColor=none;" parent="1" vertex="1">
          <mxGeometry x="635" y="185" width="30" height="30" as="geometry" />
        </mxCell>
        <mxCell id="kkySRi8QIne8LZKdG0_1-64" value="M" style="text;html=1;align=center;verticalAlign=middle;resizable=0;points=[];autosize=1;strokeColor=none;fillColor=none;" parent="1" vertex="1">
          <mxGeometry x="635" y="335" width="30" height="30" as="geometry" />
        </mxCell>
        <mxCell id="kkySRi8QIne8LZKdG0_1-66" value="&lt;u&gt;Student_ID&lt;/u&gt;" style="ellipse;whiteSpace=wrap;html=1;fillColor=#d5e8d4;strokeColor=#82b366;" parent="1" vertex="1">
          <mxGeometry x="690" y="300" width="76" height="50" as="geometry" />
        </mxCell>
        <mxCell id="kkySRi8QIne8LZKdG0_1-67" value="&lt;u&gt;Course_ID&lt;/u&gt;" style="ellipse;whiteSpace=wrap;html=1;fillColor=#d5e8d4;strokeColor=#82b366;" parent="1" vertex="1">
          <mxGeometry x="690" y="230" width="76" height="50" as="geometry" />
        </mxCell>
        <mxCell id="kkySRi8QIne8LZKdG0_1-68" value="Contain" style="rhombus;whiteSpace=wrap;html=1;fillColor=#f5f5f5;fontColor=#333333;strokeColor=#666666;" parent="1" vertex="1">
          <mxGeometry x="525" y="262.5" width="80" height="80" as="geometry" />
        </mxCell>
        <mxCell id="kkySRi8QIne8LZKdG0_1-69" value="" style="endArrow=none;html=1;rounded=0;entryX=0.5;entryY=1;entryDx=0;entryDy=0;exitX=0.5;exitY=0;exitDx=0;exitDy=0;" parent="1" source="kkySRi8QIne8LZKdG0_1-1" target="kkySRi8QIne8LZKdG0_1-68" edge="1">
          <mxGeometry width="50" height="50" relative="1" as="geometry">
            <mxPoint x="500" y="480" as="sourcePoint" />
            <mxPoint x="570" y="450" as="targetPoint" />
          </mxGeometry>
        </mxCell>
        <mxCell id="kkySRi8QIne8LZKdG0_1-70" value="" style="endArrow=none;html=1;rounded=0;exitX=0.5;exitY=0;exitDx=0;exitDy=0;entryX=0.157;entryY=0.983;entryDx=0;entryDy=0;entryPerimeter=0;" parent="1" source="kkySRi8QIne8LZKdG0_1-68" target="kkySRi8QIne8LZKdG0_1-2" edge="1">
          <mxGeometry width="50" height="50" relative="1" as="geometry">
            <mxPoint x="570" y="250" as="sourcePoint" />
            <mxPoint x="620" y="200" as="targetPoint" />
          </mxGeometry>
        </mxCell>
        <mxCell id="kkySRi8QIne8LZKdG0_1-72" value="1" style="text;html=1;align=center;verticalAlign=middle;resizable=0;points=[];autosize=1;strokeColor=none;fillColor=none;" parent="1" vertex="1">
          <mxGeometry x="585" y="185" width="30" height="30" as="geometry" />
        </mxCell>
        <mxCell id="kkySRi8QIne8LZKdG0_1-73" value="M" style="text;html=1;align=center;verticalAlign=middle;resizable=0;points=[];autosize=1;strokeColor=none;fillColor=none;" parent="1" vertex="1">
          <mxGeometry x="495" y="475" width="30" height="30" as="geometry" />
        </mxCell>
        <mxCell id="kkySRi8QIne8LZKdG0_1-74" value="&lt;u&gt;Coures_ID&lt;/u&gt;" style="ellipse;whiteSpace=wrap;html=1;fillColor=#d5e8d4;strokeColor=#82b366;" parent="1" vertex="1">
          <mxGeometry x="350" y="557" width="90" height="55" as="geometry" />
        </mxCell>
        <mxCell id="kkySRi8QIne8LZKdG0_1-76" value="" style="endArrow=none;html=1;rounded=0;exitX=0.25;exitY=0;exitDx=0;exitDy=0;entryX=1;entryY=1;entryDx=0;entryDy=0;" parent="1" source="kkySRi8QIne8LZKdG0_1-2" target="kkySRi8QIne8LZKdG0_1-32" edge="1">
          <mxGeometry width="50" height="50" relative="1" as="geometry">
            <mxPoint x="530" y="150" as="sourcePoint" />
            <mxPoint x="580" y="100" as="targetPoint" />
          </mxGeometry>
        </mxCell>
        <mxCell id="kkySRi8QIne8LZKdG0_1-77" value="" style="endArrow=none;html=1;rounded=0;entryX=0.5;entryY=1;entryDx=0;entryDy=0;exitX=0.5;exitY=0;exitDx=0;exitDy=0;" parent="1" source="kkySRi8QIne8LZKdG0_1-2" target="kkySRi8QIne8LZKdG0_1-33" edge="1">
          <mxGeometry width="50" height="50" relative="1" as="geometry">
            <mxPoint x="640" y="140" as="sourcePoint" />
            <mxPoint x="607" y="97" as="targetPoint" />
          </mxGeometry>
        </mxCell>
        <mxCell id="kkySRi8QIne8LZKdG0_1-78" value="" style="endArrow=none;html=1;rounded=0;exitX=0;exitY=1;exitDx=0;exitDy=0;entryX=0.75;entryY=0;entryDx=0;entryDy=0;" parent="1" source="kkySRi8QIne8LZKdG0_1-36" target="kkySRi8QIne8LZKdG0_1-2" edge="1">
          <mxGeometry width="50" height="50" relative="1" as="geometry">
            <mxPoint x="650" y="150" as="sourcePoint" />
            <mxPoint x="617" y="107" as="targetPoint" />
          </mxGeometry>
        </mxCell>
        <mxCell id="kkySRi8QIne8LZKdG0_1-79" value="" style="endArrow=none;html=1;rounded=0;exitX=0;exitY=1;exitDx=0;exitDy=0;entryX=1;entryY=0.5;entryDx=0;entryDy=0;" parent="1" source="kkySRi8QIne8LZKdG0_1-37" target="kkySRi8QIne8LZKdG0_1-2" edge="1">
          <mxGeometry width="50" height="50" relative="1" as="geometry">
            <mxPoint x="660" y="160" as="sourcePoint" />
            <mxPoint x="627" y="117" as="targetPoint" />
          </mxGeometry>
        </mxCell>
        <mxCell id="kkySRi8QIne8LZKdG0_1-80" value="" style="endArrow=none;html=1;rounded=0;exitX=1;exitY=0.75;exitDx=0;exitDy=0;entryX=0.009;entryY=0.367;entryDx=0;entryDy=0;entryPerimeter=0;" parent="1" source="kkySRi8QIne8LZKdG0_1-2" target="kkySRi8QIne8LZKdG0_1-38" edge="1">
          <mxGeometry width="50" height="50" relative="1" as="geometry">
            <mxPoint x="670" y="170" as="sourcePoint" />
            <mxPoint x="637" y="127" as="targetPoint" />
          </mxGeometry>
        </mxCell>
        <mxCell id="kkySRi8QIne8LZKdG0_1-81" value="" style="endArrow=none;html=1;rounded=0;exitX=1;exitY=0;exitDx=0;exitDy=0;" parent="1" source="kkySRi8QIne8LZKdG0_1-7" target="kkySRi8QIne8LZKdG0_1-67" edge="1">
          <mxGeometry width="50" height="50" relative="1" as="geometry">
            <mxPoint x="650" y="320" as="sourcePoint" />
            <mxPoint x="700" y="270" as="targetPoint" />
          </mxGeometry>
        </mxCell>
        <mxCell id="kkySRi8QIne8LZKdG0_1-82" value="" style="endArrow=none;html=1;rounded=0;exitX=0;exitY=0.5;exitDx=0;exitDy=0;" parent="1" source="kkySRi8QIne8LZKdG0_1-66" edge="1">
          <mxGeometry width="50" height="50" relative="1" as="geometry">
            <mxPoint x="630" y="360" as="sourcePoint" />
            <mxPoint x="680" y="310" as="targetPoint" />
          </mxGeometry>
        </mxCell>
        <mxCell id="kkySRi8QIne8LZKdG0_1-83" value="" style="endArrow=none;html=1;rounded=0;exitX=1;exitY=0.5;exitDx=0;exitDy=0;" parent="1" source="kkySRi8QIne8LZKdG0_1-4" edge="1">
          <mxGeometry width="50" height="50" relative="1" as="geometry">
            <mxPoint x="720" y="420" as="sourcePoint" />
            <mxPoint x="730" y="400" as="targetPoint" />
          </mxGeometry>
        </mxCell>
        <mxCell id="kkySRi8QIne8LZKdG0_1-84" value="" style="endArrow=none;html=1;rounded=0;exitX=0;exitY=0.5;exitDx=0;exitDy=0;entryX=1.003;entryY=0.892;entryDx=0;entryDy=0;entryPerimeter=0;" parent="1" source="kkySRi8QIne8LZKdG0_1-40" target="kkySRi8QIne8LZKdG0_1-4" edge="1">
          <mxGeometry width="50" height="50" relative="1" as="geometry">
            <mxPoint x="670" y="480" as="sourcePoint" />
            <mxPoint x="720" y="430" as="targetPoint" />
          </mxGeometry>
        </mxCell>
        <mxCell id="kkySRi8QIne8LZKdG0_1-85" value="" style="endArrow=none;html=1;rounded=0;exitX=1;exitY=0.5;exitDx=0;exitDy=0;entryX=0;entryY=0.5;entryDx=0;entryDy=0;" parent="1" source="kkySRi8QIne8LZKdG0_1-1" target="kkySRi8QIne8LZKdG0_1-23" edge="1">
          <mxGeometry width="50" height="50" relative="1" as="geometry">
            <mxPoint x="560" y="570" as="sourcePoint" />
            <mxPoint x="610" y="520" as="targetPoint" />
          </mxGeometry>
        </mxCell>
        <mxCell id="kkySRi8QIne8LZKdG0_1-86" value="" style="endArrow=none;html=1;rounded=0;exitX=0;exitY=0;exitDx=0;exitDy=0;" parent="1" source="kkySRi8QIne8LZKdG0_1-26" edge="1">
          <mxGeometry width="50" height="50" relative="1" as="geometry">
            <mxPoint x="530" y="600" as="sourcePoint" />
            <mxPoint x="580" y="550" as="targetPoint" />
          </mxGeometry>
        </mxCell>
        <mxCell id="kkySRi8QIne8LZKdG0_1-87" value="" style="endArrow=none;html=1;rounded=0;exitX=0;exitY=0;exitDx=0;exitDy=0;entryX=0.75;entryY=1;entryDx=0;entryDy=0;" parent="1" source="kkySRi8QIne8LZKdG0_1-27" target="kkySRi8QIne8LZKdG0_1-1" edge="1">
          <mxGeometry width="50" height="50" relative="1" as="geometry">
            <mxPoint x="520" y="610" as="sourcePoint" />
            <mxPoint x="550" y="570" as="targetPoint" />
          </mxGeometry>
        </mxCell>
        <mxCell id="kkySRi8QIne8LZKdG0_1-88" value="" style="endArrow=none;html=1;rounded=0;entryX=0.685;entryY=0.988;entryDx=0;entryDy=0;exitX=0.25;exitY=0;exitDx=0;exitDy=0;entryPerimeter=0;" parent="1" source="M-YUMPjIYdoPp0YfRwuf-3" target="kkySRi8QIne8LZKdG0_1-1" edge="1">
          <mxGeometry width="50" height="50" relative="1" as="geometry">
            <mxPoint x="534" y="640" as="sourcePoint" />
            <mxPoint x="540" y="560" as="targetPoint" />
          </mxGeometry>
        </mxCell>
        <mxCell id="kkySRi8QIne8LZKdG0_1-89" value="" style="endArrow=none;html=1;rounded=0;exitX=1;exitY=0;exitDx=0;exitDy=0;entryX=0.25;entryY=1;entryDx=0;entryDy=0;" parent="1" source="kkySRi8QIne8LZKdG0_1-25" target="kkySRi8QIne8LZKdG0_1-1" edge="1">
          <mxGeometry width="50" height="50" relative="1" as="geometry">
            <mxPoint x="450" y="610" as="sourcePoint" />
            <mxPoint x="500" y="560" as="targetPoint" />
          </mxGeometry>
        </mxCell>
        <mxCell id="kkySRi8QIne8LZKdG0_1-90" value="" style="endArrow=none;html=1;rounded=0;exitX=1;exitY=0;exitDx=0;exitDy=0;" parent="1" source="kkySRi8QIne8LZKdG0_1-74" edge="1">
          <mxGeometry width="50" height="50" relative="1" as="geometry">
            <mxPoint x="410" y="610" as="sourcePoint" />
            <mxPoint x="460" y="560" as="targetPoint" />
          </mxGeometry>
        </mxCell>
        <mxCell id="kkySRi8QIne8LZKdG0_1-91" value="" style="endArrow=none;html=1;rounded=0;exitX=1;exitY=0;exitDx=0;exitDy=0;" parent="1" source="kkySRi8QIne8LZKdG0_1-18" edge="1">
          <mxGeometry width="50" height="50" relative="1" as="geometry">
            <mxPoint x="340" y="550" as="sourcePoint" />
            <mxPoint x="390" y="500" as="targetPoint" />
          </mxGeometry>
        </mxCell>
        <mxCell id="kkySRi8QIne8LZKdG0_1-92" value="" style="endArrow=none;html=1;rounded=0;exitX=0.5;exitY=0;exitDx=0;exitDy=0;entryX=0.5;entryY=1;entryDx=0;entryDy=0;" parent="1" source="kkySRi8QIne8LZKdG0_1-18" target="kkySRi8QIne8LZKdG0_1-58" edge="1">
          <mxGeometry width="50" height="50" relative="1" as="geometry">
            <mxPoint x="350" y="470" as="sourcePoint" />
            <mxPoint x="400" y="420" as="targetPoint" />
          </mxGeometry>
        </mxCell>
        <mxCell id="kkySRi8QIne8LZKdG0_1-93" value="" style="endArrow=none;html=1;rounded=0;exitX=0.5;exitY=0;exitDx=0;exitDy=0;" parent="1" source="kkySRi8QIne8LZKdG0_1-46" edge="1">
          <mxGeometry width="50" height="50" relative="1" as="geometry">
            <mxPoint x="170" y="510" as="sourcePoint" />
            <mxPoint x="220" y="460" as="targetPoint" />
          </mxGeometry>
        </mxCell>
        <mxCell id="kkySRi8QIne8LZKdG0_1-94" value="" style="endArrow=none;html=1;rounded=0;exitX=0.5;exitY=0;exitDx=0;exitDy=0;" parent="1" source="kkySRi8QIne8LZKdG0_1-45" edge="1">
          <mxGeometry width="50" height="50" relative="1" as="geometry">
            <mxPoint x="130" y="510" as="sourcePoint" />
            <mxPoint x="180" y="460" as="targetPoint" />
          </mxGeometry>
        </mxCell>
        <mxCell id="kkySRi8QIne8LZKdG0_1-95" value="" style="endArrow=none;html=1;rounded=0;" parent="1" source="kkySRi8QIne8LZKdG0_1-44" edge="1">
          <mxGeometry width="50" height="50" relative="1" as="geometry">
            <mxPoint x="90" y="510" as="sourcePoint" />
            <mxPoint x="140" y="460" as="targetPoint" />
          </mxGeometry>
        </mxCell>
        <mxCell id="kkySRi8QIne8LZKdG0_1-96" value="" style="endArrow=none;html=1;rounded=0;exitX=1;exitY=0;exitDx=0;exitDy=0;" parent="1" source="kkySRi8QIne8LZKdG0_1-43" edge="1">
          <mxGeometry width="50" height="50" relative="1" as="geometry">
            <mxPoint x="80" y="490" as="sourcePoint" />
            <mxPoint x="130" y="440" as="targetPoint" />
          </mxGeometry>
        </mxCell>
        <mxCell id="kkySRi8QIne8LZKdG0_1-97" value="" style="endArrow=none;html=1;rounded=0;exitX=1;exitY=0.5;exitDx=0;exitDy=0;" parent="1" source="kkySRi8QIne8LZKdG0_1-42" edge="1">
          <mxGeometry width="50" height="50" relative="1" as="geometry">
            <mxPoint x="80" y="470" as="sourcePoint" />
            <mxPoint x="130" y="420" as="targetPoint" />
          </mxGeometry>
        </mxCell>
        <mxCell id="kkySRi8QIne8LZKdG0_1-98" value="" style="endArrow=none;html=1;rounded=0;exitX=1;exitY=1;exitDx=0;exitDy=0;" parent="1" source="kkySRi8QIne8LZKdG0_1-41" edge="1">
          <mxGeometry width="50" height="50" relative="1" as="geometry">
            <mxPoint x="80" y="460" as="sourcePoint" />
            <mxPoint x="130" y="410" as="targetPoint" />
          </mxGeometry>
        </mxCell>
        <mxCell id="kkySRi8QIne8LZKdG0_1-99" value="" style="endArrow=none;html=1;rounded=0;entryX=1;entryY=1;entryDx=0;entryDy=0;exitX=0.5;exitY=0;exitDx=0;exitDy=0;" parent="1" source="kkySRi8QIne8LZKdG0_1-5" target="kkySRi8QIne8LZKdG0_1-54" edge="1">
          <mxGeometry width="50" height="50" relative="1" as="geometry">
            <mxPoint x="130" y="430" as="sourcePoint" />
            <mxPoint x="180" y="380" as="targetPoint" />
          </mxGeometry>
        </mxCell>
        <mxCell id="kkySRi8QIne8LZKdG0_1-100" value="" style="endArrow=none;html=1;rounded=0;exitX=0.5;exitY=0;exitDx=0;exitDy=0;entryX=0.5;entryY=1;entryDx=0;entryDy=0;" parent="1" source="kkySRi8QIne8LZKdG0_1-3" target="kkySRi8QIne8LZKdG0_1-31" edge="1">
          <mxGeometry width="50" height="50" relative="1" as="geometry">
            <mxPoint x="140" y="150" as="sourcePoint" />
            <mxPoint x="190" y="100" as="targetPoint" />
          </mxGeometry>
        </mxCell>
        <mxCell id="kkySRi8QIne8LZKdG0_1-101" value="" style="endArrow=none;html=1;rounded=0;exitX=0.25;exitY=0;exitDx=0;exitDy=0;entryX=0.782;entryY=0.898;entryDx=0;entryDy=0;entryPerimeter=0;" parent="1" source="kkySRi8QIne8LZKdG0_1-3" target="kkySRi8QIne8LZKdG0_1-29" edge="1">
          <mxGeometry width="50" height="50" relative="1" as="geometry">
            <mxPoint x="40" y="150" as="sourcePoint" />
            <mxPoint x="90" y="100" as="targetPoint" />
          </mxGeometry>
        </mxCell>
        <mxCell id="kkySRi8QIne8LZKdG0_1-102" value="" style="endArrow=none;html=1;rounded=0;exitX=0.559;exitY=0;exitDx=0;exitDy=0;exitPerimeter=0;entryX=0;entryY=1;entryDx=0;entryDy=0;" parent="1" source="kkySRi8QIne8LZKdG0_1-49" target="kkySRi8QIne8LZKdG0_1-6" edge="1">
          <mxGeometry width="50" height="50" relative="1" as="geometry">
            <mxPoint x="340" y="230" as="sourcePoint" />
            <mxPoint x="390" y="180" as="targetPoint" />
          </mxGeometry>
        </mxCell>
        <mxCell id="kkySRi8QIne8LZKdG0_1-103" value="" style="endArrow=none;html=1;rounded=0;exitX=0.5;exitY=0;exitDx=0;exitDy=0;entryX=1;entryY=1;entryDx=0;entryDy=0;" parent="1" source="kkySRi8QIne8LZKdG0_1-50" target="kkySRi8QIne8LZKdG0_1-6" edge="1">
          <mxGeometry width="50" height="50" relative="1" as="geometry">
            <mxPoint x="400" y="230" as="sourcePoint" />
            <mxPoint x="450" y="180" as="targetPoint" />
          </mxGeometry>
        </mxCell>
        <mxCell id="kkySRi8QIne8LZKdG0_1-104" value="" style="endArrow=none;html=1;rounded=0;exitX=1;exitY=0;exitDx=0;exitDy=0;" parent="1" source="kkySRi8QIne8LZKdG0_1-13" edge="1">
          <mxGeometry width="50" height="50" relative="1" as="geometry">
            <mxPoint x="400" y="390" as="sourcePoint" />
            <mxPoint x="440" y="360" as="targetPoint" />
          </mxGeometry>
        </mxCell>
        <mxCell id="kkySRi8QIne8LZKdG0_1-105" value="" style="endArrow=none;html=1;rounded=0;exitX=0;exitY=0;exitDx=0;exitDy=0;entryX=1;entryY=1;entryDx=0;entryDy=0;" parent="1" source="kkySRi8QIne8LZKdG0_1-13" target="kkySRi8QIne8LZKdG0_1-62" edge="1">
          <mxGeometry width="50" height="50" relative="1" as="geometry">
            <mxPoint x="260" y="340" as="sourcePoint" />
            <mxPoint x="380" y="340" as="targetPoint" />
          </mxGeometry>
        </mxCell>
        <mxCell id="L344_sld_UzKIZVO7bmH-2" value="Email" style="ellipse;whiteSpace=wrap;html=1;fillColor=#ffe6cc;strokeColor=#d79b00;" parent="1" vertex="1">
          <mxGeometry x="215" y="55" width="90" height="55" as="geometry" />
        </mxCell>
        <mxCell id="L344_sld_UzKIZVO7bmH-4" value="" style="endArrow=none;html=1;rounded=0;exitX=0.886;exitY=0.011;exitDx=0;exitDy=0;exitPerimeter=0;entryX=0;entryY=1;entryDx=0;entryDy=0;" parent="1" source="kkySRi8QIne8LZKdG0_1-3" target="L344_sld_UzKIZVO7bmH-2" edge="1">
          <mxGeometry width="50" height="50" relative="1" as="geometry">
            <mxPoint x="200" y="160" as="sourcePoint" />
            <mxPoint x="250" y="110" as="targetPoint" />
          </mxGeometry>
        </mxCell>
        <mxCell id="M-YUMPjIYdoPp0YfRwuf-1" value="Name" style="ellipse;whiteSpace=wrap;html=1;fillColor=#ffe6cc;strokeColor=#d79b00;" vertex="1" parent="1">
          <mxGeometry y="375" width="90" height="55" as="geometry" />
        </mxCell>
        <mxCell id="M-YUMPjIYdoPp0YfRwuf-2" value="" style="endArrow=none;html=1;rounded=0;exitX=1;exitY=0.5;exitDx=0;exitDy=0;entryX=0;entryY=0.25;entryDx=0;entryDy=0;" edge="1" parent="1" source="M-YUMPjIYdoPp0YfRwuf-1" target="kkySRi8QIne8LZKdG0_1-5">
          <mxGeometry width="50" height="50" relative="1" as="geometry">
            <mxPoint x="100" y="460" as="sourcePoint" />
            <mxPoint x="150" y="410" as="targetPoint" />
          </mxGeometry>
        </mxCell>
        <mxCell id="M-YUMPjIYdoPp0YfRwuf-3" value="MCQ" style="rounded=1;whiteSpace=wrap;html=1;fillColor=#f8cecc;strokeColor=#b85450;" vertex="1" parent="1">
          <mxGeometry x="585" y="730" width="120" height="60" as="geometry" />
        </mxCell>
        <mxCell id="M-YUMPjIYdoPp0YfRwuf-4" value="Text" style="rounded=1;whiteSpace=wrap;html=1;fillColor=#f8cecc;strokeColor=#b85450;" vertex="1" parent="1">
          <mxGeometry x="440" y="790" width="120" height="60" as="geometry" />
        </mxCell>
        <mxCell id="M-YUMPjIYdoPp0YfRwuf-5" value="True/False" style="rounded=1;whiteSpace=wrap;html=1;fillColor=#f8cecc;strokeColor=#b85450;" vertex="1" parent="1">
          <mxGeometry x="290" y="730" width="120" height="60" as="geometry" />
        </mxCell>
        <mxCell id="M-YUMPjIYdoPp0YfRwuf-6" value="" style="endArrow=none;html=1;rounded=0;exitX=0.75;exitY=0;exitDx=0;exitDy=0;" edge="1" parent="1" source="M-YUMPjIYdoPp0YfRwuf-4">
          <mxGeometry width="50" height="50" relative="1" as="geometry">
            <mxPoint x="480" y="610" as="sourcePoint" />
            <mxPoint x="530" y="560" as="targetPoint" />
          </mxGeometry>
        </mxCell>
        <mxCell id="M-YUMPjIYdoPp0YfRwuf-7" value="" style="endArrow=none;html=1;rounded=0;exitX=1;exitY=0;exitDx=0;exitDy=0;entryX=0.425;entryY=0.958;entryDx=0;entryDy=0;entryPerimeter=0;" edge="1" parent="1" source="M-YUMPjIYdoPp0YfRwuf-5" target="kkySRi8QIne8LZKdG0_1-1">
          <mxGeometry width="50" height="50" relative="1" as="geometry">
            <mxPoint x="470" y="620" as="sourcePoint" />
            <mxPoint x="520" y="570" as="targetPoint" />
          </mxGeometry>
        </mxCell>
        <mxCell id="M-YUMPjIYdoPp0YfRwuf-8" value="&lt;u&gt;Question_ID&lt;/u&gt;" style="ellipse;whiteSpace=wrap;html=1;fillColor=#d5e8d4;strokeColor=#82b366;" vertex="1" parent="1">
          <mxGeometry x="185" y="740" width="76" height="50" as="geometry" />
        </mxCell>
        <mxCell id="M-YUMPjIYdoPp0YfRwuf-9" value="&lt;u&gt;Question_ID&lt;/u&gt;" style="ellipse;whiteSpace=wrap;html=1;fillColor=#d5e8d4;strokeColor=#82b366;" vertex="1" parent="1">
          <mxGeometry x="414" y="890" width="76" height="50" as="geometry" />
        </mxCell>
        <mxCell id="M-YUMPjIYdoPp0YfRwuf-10" value="&lt;u&gt;Question_ID&lt;/u&gt;" style="ellipse;whiteSpace=wrap;html=1;fillColor=#d5e8d4;strokeColor=#82b366;" vertex="1" parent="1">
          <mxGeometry x="730" y="690" width="76" height="50" as="geometry" />
        </mxCell>
        <mxCell id="M-YUMPjIYdoPp0YfRwuf-11" value="Right answer" style="ellipse;whiteSpace=wrap;html=1;fillColor=#ffe6cc;strokeColor=#d79b00;" vertex="1" parent="1">
          <mxGeometry x="228" y="810" width="90" height="55" as="geometry" />
        </mxCell>
        <mxCell id="M-YUMPjIYdoPp0YfRwuf-12" value="Wrong Answer" style="ellipse;whiteSpace=wrap;html=1;fillColor=#ffe6cc;strokeColor=#d79b00;" vertex="1" parent="1">
          <mxGeometry x="328" y="810" width="90" height="55" as="geometry" />
        </mxCell>
        <mxCell id="M-YUMPjIYdoPp0YfRwuf-13" value="Right answer" style="ellipse;whiteSpace=wrap;html=1;fillColor=#ffe6cc;strokeColor=#d79b00;" vertex="1" parent="1">
          <mxGeometry x="505" y="885" width="90" height="55" as="geometry" />
        </mxCell>
        <mxCell id="M-YUMPjIYdoPp0YfRwuf-14" value="Right answer" style="ellipse;whiteSpace=wrap;html=1;fillColor=#ffe6cc;strokeColor=#d79b00;" vertex="1" parent="1">
          <mxGeometry x="579" y="810" width="90" height="55" as="geometry" />
        </mxCell>
        <mxCell id="M-YUMPjIYdoPp0YfRwuf-15" value="Wrong Answer1" style="ellipse;whiteSpace=wrap;html=1;fillColor=#ffe6cc;strokeColor=#d79b00;" vertex="1" parent="1">
          <mxGeometry x="723" y="760" width="90" height="55" as="geometry" />
        </mxCell>
        <mxCell id="M-YUMPjIYdoPp0YfRwuf-16" value="Wrong Answer2" style="ellipse;whiteSpace=wrap;html=1;fillColor=#ffe6cc;strokeColor=#d79b00;" vertex="1" parent="1">
          <mxGeometry x="690" y="820" width="90" height="55" as="geometry" />
        </mxCell>
        <mxCell id="M-YUMPjIYdoPp0YfRwuf-17" value="" style="endArrow=none;html=1;rounded=0;exitX=0.5;exitY=0;exitDx=0;exitDy=0;" edge="1" parent="1" source="M-YUMPjIYdoPp0YfRwuf-9">
          <mxGeometry width="50" height="50" relative="1" as="geometry">
            <mxPoint x="430" y="900" as="sourcePoint" />
            <mxPoint x="480" y="850" as="targetPoint" />
          </mxGeometry>
        </mxCell>
        <mxCell id="M-YUMPjIYdoPp0YfRwuf-18" value="" style="endArrow=none;html=1;rounded=0;exitX=0.5;exitY=0;exitDx=0;exitDy=0;entryX=0.75;entryY=1;entryDx=0;entryDy=0;" edge="1" parent="1" source="M-YUMPjIYdoPp0YfRwuf-13" target="M-YUMPjIYdoPp0YfRwuf-4">
          <mxGeometry width="50" height="50" relative="1" as="geometry">
            <mxPoint x="462" y="900" as="sourcePoint" />
            <mxPoint x="490" y="860" as="targetPoint" />
          </mxGeometry>
        </mxCell>
        <mxCell id="M-YUMPjIYdoPp0YfRwuf-19" value="" style="endArrow=none;html=1;rounded=0;entryX=0.25;entryY=1;entryDx=0;entryDy=0;exitX=0.5;exitY=0;exitDx=0;exitDy=0;" edge="1" parent="1" source="M-YUMPjIYdoPp0YfRwuf-14" target="M-YUMPjIYdoPp0YfRwuf-3">
          <mxGeometry width="50" height="50" relative="1" as="geometry">
            <mxPoint x="560" y="860" as="sourcePoint" />
            <mxPoint x="490" y="860" as="targetPoint" />
          </mxGeometry>
        </mxCell>
        <mxCell id="M-YUMPjIYdoPp0YfRwuf-20" value="" style="endArrow=none;html=1;rounded=0;entryX=0.75;entryY=1;entryDx=0;entryDy=0;" edge="1" parent="1" source="M-YUMPjIYdoPp0YfRwuf-16" target="M-YUMPjIYdoPp0YfRwuf-3">
          <mxGeometry width="50" height="50" relative="1" as="geometry">
            <mxPoint x="634" y="820" as="sourcePoint" />
            <mxPoint x="625" y="800" as="targetPoint" />
          </mxGeometry>
        </mxCell>
        <mxCell id="M-YUMPjIYdoPp0YfRwuf-21" value="" style="endArrow=none;html=1;rounded=0;entryX=1;entryY=0.75;entryDx=0;entryDy=0;exitX=0;exitY=0.5;exitDx=0;exitDy=0;" edge="1" parent="1" source="M-YUMPjIYdoPp0YfRwuf-15" target="M-YUMPjIYdoPp0YfRwuf-3">
          <mxGeometry width="50" height="50" relative="1" as="geometry">
            <mxPoint x="717" y="832" as="sourcePoint" />
            <mxPoint x="685" y="800" as="targetPoint" />
          </mxGeometry>
        </mxCell>
        <mxCell id="M-YUMPjIYdoPp0YfRwuf-22" value="" style="endArrow=none;html=1;rounded=0;entryX=1;entryY=0;entryDx=0;entryDy=0;exitX=0;exitY=0.5;exitDx=0;exitDy=0;" edge="1" parent="1" source="M-YUMPjIYdoPp0YfRwuf-10" target="M-YUMPjIYdoPp0YfRwuf-3">
          <mxGeometry width="50" height="50" relative="1" as="geometry">
            <mxPoint x="733" y="798" as="sourcePoint" />
            <mxPoint x="715" y="785" as="targetPoint" />
          </mxGeometry>
        </mxCell>
        <mxCell id="M-YUMPjIYdoPp0YfRwuf-23" value="" style="endArrow=none;html=1;rounded=0;exitX=1;exitY=0.5;exitDx=0;exitDy=0;entryX=0;entryY=0.5;entryDx=0;entryDy=0;" edge="1" parent="1" source="M-YUMPjIYdoPp0YfRwuf-8" target="M-YUMPjIYdoPp0YfRwuf-5">
          <mxGeometry width="50" height="50" relative="1" as="geometry">
            <mxPoint x="240" y="810" as="sourcePoint" />
            <mxPoint x="290" y="760" as="targetPoint" />
          </mxGeometry>
        </mxCell>
        <mxCell id="M-YUMPjIYdoPp0YfRwuf-24" value="" style="endArrow=none;html=1;rounded=0;exitX=0.5;exitY=0;exitDx=0;exitDy=0;entryX=0;entryY=1;entryDx=0;entryDy=0;" edge="1" parent="1" source="M-YUMPjIYdoPp0YfRwuf-11" target="M-YUMPjIYdoPp0YfRwuf-5">
          <mxGeometry width="50" height="50" relative="1" as="geometry">
            <mxPoint x="271" y="775" as="sourcePoint" />
            <mxPoint x="300" y="770" as="targetPoint" />
          </mxGeometry>
        </mxCell>
        <mxCell id="M-YUMPjIYdoPp0YfRwuf-25" value="" style="endArrow=none;html=1;rounded=0;exitX=0.5;exitY=0;exitDx=0;exitDy=0;entryX=0.75;entryY=1;entryDx=0;entryDy=0;" edge="1" parent="1" source="M-YUMPjIYdoPp0YfRwuf-12" target="M-YUMPjIYdoPp0YfRwuf-5">
          <mxGeometry width="50" height="50" relative="1" as="geometry">
            <mxPoint x="283" y="820" as="sourcePoint" />
            <mxPoint x="300" y="800" as="targetPoint" />
          </mxGeometry>
        </mxCell>
        <mxCell id="M-YUMPjIYdoPp0YfRwuf-26" value="solve" style="rounded=1;whiteSpace=wrap;html=1;fillColor=#f8cecc;strokeColor=#b85450;" vertex="1" parent="1">
          <mxGeometry x="85" y="840" width="120" height="60" as="geometry" />
        </mxCell>
        <mxCell id="M-YUMPjIYdoPp0YfRwuf-27" value="&lt;u&gt;Course_ID&lt;/u&gt;" style="ellipse;whiteSpace=wrap;html=1;fillColor=#d5e8d4;strokeColor=#82b366;" vertex="1" parent="1">
          <mxGeometry x="-1" y="845" width="68" height="50" as="geometry" />
        </mxCell>
        <mxCell id="M-YUMPjIYdoPp0YfRwuf-28" value="&lt;u&gt;Student_ID&lt;/u&gt;" style="ellipse;whiteSpace=wrap;html=1;fillColor=#d5e8d4;strokeColor=#82b366;" vertex="1" parent="1">
          <mxGeometry x="-1" y="980" width="76" height="50" as="geometry" />
        </mxCell>
        <mxCell id="M-YUMPjIYdoPp0YfRwuf-29" value="&lt;u&gt;Exam_ID&lt;/u&gt;" style="ellipse;whiteSpace=wrap;html=1;fillColor=#d5e8d4;strokeColor=#82b366;" vertex="1" parent="1">
          <mxGeometry x="-1" y="910" width="66" height="45" as="geometry" />
        </mxCell>
        <mxCell id="M-YUMPjIYdoPp0YfRwuf-30" value="student answer" style="ellipse;whiteSpace=wrap;html=1;fillColor=#ffe6cc;strokeColor=#d79b00;" vertex="1" parent="1">
          <mxGeometry x="90" y="975" width="90" height="55" as="geometry" />
        </mxCell>
        <mxCell id="M-YUMPjIYdoPp0YfRwuf-31" value="Student degree" style="ellipse;whiteSpace=wrap;html=1;fillColor=#ffe6cc;strokeColor=#d79b00;" vertex="1" parent="1">
          <mxGeometry x="220" y="895" width="90" height="55" as="geometry" />
        </mxCell>
        <mxCell id="M-YUMPjIYdoPp0YfRwuf-32" value="Correct Answer" style="ellipse;whiteSpace=wrap;html=1;fillColor=#ffe6cc;strokeColor=#d79b00;" vertex="1" parent="1">
          <mxGeometry x="196" y="970" width="90" height="55" as="geometry" />
        </mxCell>
        <mxCell id="M-YUMPjIYdoPp0YfRwuf-33" value="" style="endArrow=none;html=1;rounded=0;exitX=0.5;exitY=0;exitDx=0;exitDy=0;entryX=0.5;entryY=1;entryDx=0;entryDy=0;" edge="1" parent="1" source="M-YUMPjIYdoPp0YfRwuf-30" target="M-YUMPjIYdoPp0YfRwuf-26">
          <mxGeometry width="50" height="50" relative="1" as="geometry">
            <mxPoint x="100" y="950" as="sourcePoint" />
            <mxPoint x="150" y="900" as="targetPoint" />
          </mxGeometry>
        </mxCell>
        <mxCell id="M-YUMPjIYdoPp0YfRwuf-34" value="" style="endArrow=none;html=1;rounded=0;exitX=0;exitY=0;exitDx=0;exitDy=0;entryX=0.75;entryY=1;entryDx=0;entryDy=0;" edge="1" parent="1" source="M-YUMPjIYdoPp0YfRwuf-32" target="M-YUMPjIYdoPp0YfRwuf-26">
          <mxGeometry width="50" height="50" relative="1" as="geometry">
            <mxPoint x="145" y="985" as="sourcePoint" />
            <mxPoint x="155" y="910" as="targetPoint" />
          </mxGeometry>
        </mxCell>
        <mxCell id="M-YUMPjIYdoPp0YfRwuf-35" value="" style="endArrow=none;html=1;rounded=0;exitX=0;exitY=0;exitDx=0;exitDy=0;entryX=1;entryY=0.75;entryDx=0;entryDy=0;" edge="1" parent="1" source="M-YUMPjIYdoPp0YfRwuf-31" target="M-YUMPjIYdoPp0YfRwuf-26">
          <mxGeometry width="50" height="50" relative="1" as="geometry">
            <mxPoint x="219" y="988" as="sourcePoint" />
            <mxPoint x="185" y="910" as="targetPoint" />
          </mxGeometry>
        </mxCell>
        <mxCell id="M-YUMPjIYdoPp0YfRwuf-36" value="" style="endArrow=none;html=1;rounded=0;exitX=1;exitY=0;exitDx=0;exitDy=0;entryX=0.337;entryY=0.997;entryDx=0;entryDy=0;entryPerimeter=0;" edge="1" parent="1" source="M-YUMPjIYdoPp0YfRwuf-28" target="M-YUMPjIYdoPp0YfRwuf-26">
          <mxGeometry width="50" height="50" relative="1" as="geometry">
            <mxPoint x="145" y="985" as="sourcePoint" />
            <mxPoint x="155" y="910" as="targetPoint" />
          </mxGeometry>
        </mxCell>
        <mxCell id="M-YUMPjIYdoPp0YfRwuf-37" value="" style="endArrow=none;html=1;rounded=0;exitX=1;exitY=0;exitDx=0;exitDy=0;entryX=0;entryY=1;entryDx=0;entryDy=0;" edge="1" parent="1" source="M-YUMPjIYdoPp0YfRwuf-29" target="M-YUMPjIYdoPp0YfRwuf-26">
          <mxGeometry width="50" height="50" relative="1" as="geometry">
            <mxPoint x="155" y="995" as="sourcePoint" />
            <mxPoint x="165" y="920" as="targetPoint" />
          </mxGeometry>
        </mxCell>
        <mxCell id="M-YUMPjIYdoPp0YfRwuf-38" value="" style="endArrow=none;html=1;rounded=0;exitX=1;exitY=0.5;exitDx=0;exitDy=0;entryX=0;entryY=0.5;entryDx=0;entryDy=0;" edge="1" parent="1" source="M-YUMPjIYdoPp0YfRwuf-27" target="M-YUMPjIYdoPp0YfRwuf-26">
          <mxGeometry width="50" height="50" relative="1" as="geometry">
            <mxPoint x="66" y="927" as="sourcePoint" />
            <mxPoint x="95" y="910" as="targetPoint" />
          </mxGeometry>
        </mxCell>
      </root>
    </mxGraphModel>
  </diagram>
</mxfile>
